<?xml version="1.0" encoding="utf-8"?>
<!-- Generator: Adobe Illustrator 23.0.1, SVG Export Plug-In . SVG Version: 6.00 Build 0)  -->
<svg version="1.1" id="Layer_1" xmlns="http://www.w3.org/2000/svg" xmlns:xlink="http://www.w3.org/1999/xlink" x="0px" y="0px"
	 viewBox="0 0 485 485" style="enable-background:new 0 0 485 485;" xml:space="preserve">
<style type="text/css">
	.st0{fill:#FFFFFF;}
</style>
<g>
	<path class="st0" d="M348.9,358.5c-22,0-50.1-9.8-63.7-18L272,393.5c18,9.8,45.7,16.6,76.9,16.6c68,0,103.1-32.6,103.1-77
		c-0.5-35-19.5-57.9-64.7-73.4c-29.1-10.3-38.2-16.1-38.2-27.3c0-12.1,10.1-19.5,28.1-19.5c20.4,0,40.7,7.8,51.6,13.7l13.1-51.1
		c-14.6-7.3-39.4-13.6-67.2-13.6c-58.8,0-96.8,33.6-96.8,77.8c-0.5,28.3,18.4,55.1,67.7,71.5c27.6,9.3,34.9,15.1,34.9,27.3
		C380.5,350.7,371.1,358.5,348.9,358.5z"/>
	<path class="st0" d="M106.4,288c6.8,1,15.6,1.3,25.2,1.3c43.8,0,81.3-10.6,106.5-34.4c19.6-18.5,30.3-45.8,30.3-77.8
		c0-32.1-14-59.4-35.1-75.9c-21.8-17.6-54.4-26.3-100.2-26.3c-45.2,0-77.3,3-100.1,6.8v323.5h73.4L106.4,288L106.4,288z
		 M106.5,133.8c5.2-1.5,15.5-3,30.4-3c37.1,0,57.9,17.9,58.1,48c0,33.6-24.5,53.6-63.9,53.6c-10.6,0-18.3-0.5-24.7-1.8L106.5,133.8
		L106.5,133.8z"/>
</g>
</svg>
