<svg id="Layer_1" data-name="Layer 1" xmlns="http://www.w3.org/2000/svg" width="300" height="300" viewBox="0 0 300 300"><defs><style>.cls-1{fill:#fff;}</style></defs><title>tool-xd</title><path class="cls-1" d="M123.9,202.68l-9.15-18.3c-3.75-7-6.15-12.3-9-18.15h-.3c-2.1,5.85-4.65,11.1-7.8,18.15l-8.4,18.3H63.15L92.4,151.53,64.2,101.58H90.45L99.3,120c3,6.15,5.25,11.1,7.65,16.8h.3c2.4-6.45,4.35-11,6.9-16.8l8.55-18.45h26.1l-28.5,49.35,30,51.75Z"/><path class="cls-1" d="M230.1,96.18v84.6c0,8.25.3,16.95.6,21.9H210.45l-1-10.8h-.3c-4.65,8.25-13.5,12.45-22.95,12.45-17.4,0-31.35-14.85-31.35-37.65-.15-24.75,15.3-39,32.85-39,9,0,16,3.15,19.35,8.25h.3V96.18Zm-22.8,64.2a36.78,36.78,0,0,0-.3-4c-1.35-6.15-6.3-11.25-13.35-11.25-10.35,0-15.75,9.3-15.75,20.85,0,12.45,6.15,20.25,15.6,20.25a13.35,13.35,0,0,0,13.2-11,19.41,19.41,0,0,0,.6-5.25Z"/></svg>
