<svg id="Layer_1" data-name="Layer 1" xmlns="http://www.w3.org/2000/svg" width="300" height="300" viewBox="0 0 300 300"><defs><style>.cls-1{fill:#fff;}</style></defs><title>tool-ps</title><path class="cls-1" d="M85.35,102.93c7.05-1.2,17-2.1,30.9-2.1,14.1,0,24.15,2.7,30.9,8.1a29.56,29.56,0,0,1,10.8,23.4c0,9.9-3.3,18.3-9.3,24C140.85,163.68,129.3,167,115.8,167a57.57,57.57,0,0,1-7.8-.45v36.15H85.35ZM108,148.83a34.94,34.94,0,0,0,7.65.6c12.15,0,19.65-6.15,19.65-16.5,0-9.3-6.45-14.85-17.85-14.85a39,39,0,0,0-9.45.9Z"/><path class="cls-1" d="M168.45,182.73c4.2,2.55,12.9,5.55,19.65,5.55,6.9,0,9.75-2.4,9.75-6.15s-2.25-5.55-10.8-8.4c-15.15-5.1-21-13.35-20.85-22,0-13.65,11.7-24,29.85-24,8.55,0,16.2,1.95,20.7,4.2l-4.05,15.75a36,36,0,0,0-15.9-4.2c-5.55,0-8.7,2.25-8.7,6,0,3.45,2.85,5.25,11.85,8.4,14,4.8,19.8,11.85,20,22.65,0,13.65-10.8,23.7-31.8,23.7-9.6,0-18.15-2.1-23.7-5.1Z"/></svg>
