<svg id="Layer_1" data-name="Layer 1" xmlns="http://www.w3.org/2000/svg" width="300" height="300" viewBox="0 0 300 300"><defs><style>.cls-1{fill:#fff;}</style></defs><title>tool-id</title><path class="cls-1" d="M117,101.58v101.1h-23V101.58Z"/><path class="cls-1" d="M206.7,96.18v84.6c0,8.25.3,16.95.6,21.9H187.05L186,191.88h-.3c-4.65,8.25-13.5,12.45-22.95,12.45-17.4,0-31.35-14.85-31.35-37.65-.15-24.75,15.3-39,32.85-39,9,0,16.05,3.15,19.35,8.25h.3V96.18Zm-22.8,64.2a36.78,36.78,0,0,0-.3-4c-1.35-6.15-6.3-11.25-13.35-11.25-10.35,0-15.75,9.3-15.75,20.85,0,12.45,6.15,20.25,15.6,20.25a13.35,13.35,0,0,0,13.2-11,19.41,19.41,0,0,0,.6-5.25Z"/></svg>
