<svg id="Layer_1" data-name="Layer 1" xmlns="http://www.w3.org/2000/svg" width="300" height="300" viewBox="0 0 300 300"><defs><style>.cls-1{fill:#fff;}</style></defs><title>tool-ai</title><path class="cls-1" d="M114.15,176.73l-7.2,26H83.25l30.9-101.1h30l31.35,101.1H150.9l-7.8-26Zm25.65-17.1-6.3-21.45c-1.8-6-3.6-13.5-5.1-19.5h-.3c-1.5,6-3,13.65-4.65,19.5l-6,21.45Z"/><path class="cls-1" d="M210.9,108.93c0,6.3-4.8,11.4-12.3,11.4-7.2,0-12-5.1-11.85-11.4-.15-6.6,4.65-11.55,12-11.55S210.75,102.33,210.9,108.93Zm-23.55,93.75V129.33h22.8v73.35Z"/></svg>
