<svg id="Layer_1" data-name="Layer 1" xmlns="http://www.w3.org/2000/svg" width="300" height="300" viewBox="0 0 300 300"><defs><style>.cls-1{fill:#fff;}</style></defs><title>tool-pr</title><path class="cls-1" d="M88.5,102.93c7-1.2,17-2.1,30.9-2.1s24.15,2.7,30.9,8.1a29.56,29.56,0,0,1,10.8,23.4c0,9.9-3.3,18.3-9.3,24C144,163.68,132.45,167,119,167a57.57,57.57,0,0,1-7.8-.45v36.15H88.5Zm22.65,45.9a34.94,34.94,0,0,0,7.65.6c12.15,0,19.65-6.15,19.65-16.5,0-9.3-6.45-14.85-17.85-14.85a39,39,0,0,0-9.45.9Z"/><path class="cls-1" d="M173.55,153.48c0-10.8-.3-17.85-.6-24.15H192.6l.75,13.5h.6c3.75-10.65,12.75-15.15,19.8-15.15a23.5,23.5,0,0,1,4.8.3v21.45a32.68,32.68,0,0,0-6.15-.6c-8.4,0-14.1,4.5-15.6,11.55a26.89,26.89,0,0,0-.45,5.1v37.2h-22.8Z"/></svg>
