<svg id="Layer_1" data-name="Layer 1" xmlns="http://www.w3.org/2000/svg" width="300" height="300" viewBox="0 0 300 300"><defs><style>.cls-1{fill:#fff;}</style></defs><title>tool-js</title><path class="cls-1" d="M103.16,214.84a36.34,36.34,0,0,1-9.83-1.19V199.8a32.92,32.92,0,0,0,7.85,1.07q5.47,0,7.84-3.41t2.36-10.66V113.21H128v73.48q0,13.76-6.28,20.95T103.16,214.84Z"/><path class="cls-1" d="M194.15,169.93q0,10.63-7.65,16.76t-21.3,6.12A50.05,50.05,0,0,1,143,188.09V172.62a91.19,91.19,0,0,0,13.46,5,39.62,39.62,0,0,0,10.07,1.45c3.65,0,6.45-.69,8.41-2.09a7.16,7.16,0,0,0,2.92-6.23,6.88,6.88,0,0,0-1.29-4.11,14.46,14.46,0,0,0-3.78-3.46,96.94,96.94,0,0,0-10.18-5.32,48.3,48.3,0,0,1-10.8-6.5A24.52,24.52,0,0,1,146,144.1a20.73,20.73,0,0,1-2.14-9.67q0-10.43,7.06-16.38t19.52-6a46,46,0,0,1,11.69,1.45,78.75,78.75,0,0,1,11.62,4.08l-5.37,12.94A78.36,78.36,0,0,0,178,127a33.44,33.44,0,0,0-8.08-1c-3.16,0-5.57.74-7.25,2.21a7.23,7.23,0,0,0-2.53,5.74,7.1,7.1,0,0,0,1,3.84,11.19,11.19,0,0,0,3.25,3.17A100,100,0,0,0,175,146.41q11,5.26,15.09,10.55A20.61,20.61,0,0,1,194.15,169.93Z"/></svg>
