<svg id="Layer_1" data-name="Layer 1" xmlns="http://www.w3.org/2000/svg" width="300" height="300" viewBox="0 0 300 300"><defs><style>.cls-1{fill:#fff;}</style></defs><title>tool-html</title><path class="cls-1" d="M89.9,179.78H77.83V155.13H55.22v24.65H43.11V122.67H55.22v22.39H77.83V122.67H89.9Z"/><path class="cls-1" d="M126.35,179.78H114.24v-47H98.73V122.67h43.13v10.08H126.35Z"/><path class="cls-1" d="M174.82,179.78,161.07,135h-.35q.75,13.67.75,18.24v26.56H150.64V122.67h16.49l13.51,43.68h.24l14.34-43.68H211.7v57.11H200.41v-27q0-1.91.06-4.41t.53-13.28h-.36l-14.72,44.72Z"/><path class="cls-1" d="M226.07,179.78V122.67h12.11v47.11h23.17v10Z"/></svg>
