<svg id="Layer_1" data-name="Layer 1" xmlns="http://www.w3.org/2000/svg" width="300" height="300" viewBox="0 0 300 300"><defs><style>.cls-1{fill:#fff;}</style></defs><title>tool-css</title><path class="cls-1" d="M97.6,125.94q-9.39,0-14.55,7.07t-5.16,19.68Q77.89,179,97.6,179q8.28,0,20-4.14v14a55.74,55.74,0,0,1-21.59,4q-17.14,0-26.21-10.39t-9.08-29.84a48.59,48.59,0,0,1,4.46-21.45A32.23,32.23,0,0,1,78,117a37.82,37.82,0,0,1,19.57-4.91,52.81,52.81,0,0,1,23,5.53l-5.37,13.53a91.41,91.41,0,0,0-8.86-3.65A26.4,26.4,0,0,0,97.6,125.94Z"/><path class="cls-1" d="M180.7,169.93q0,10.63-7.66,16.76t-21.3,6.12a50,50,0,0,1-22.23-4.72V172.62a91.13,91.13,0,0,0,13.45,5A39.68,39.68,0,0,0,153,179.06c3.66,0,6.46-.69,8.41-2.09a7.17,7.17,0,0,0,2.93-6.23,6.88,6.88,0,0,0-1.29-4.11,14.36,14.36,0,0,0-3.79-3.46,95.88,95.88,0,0,0-10.18-5.32,48.19,48.19,0,0,1-10.79-6.5,24.36,24.36,0,0,1-5.75-7.25,20.73,20.73,0,0,1-2.15-9.67q0-10.43,7.07-16.38t19.52-6a45.92,45.92,0,0,1,11.68,1.45,78.85,78.85,0,0,1,11.63,4.08L175,130.56a78.86,78.86,0,0,0-10.39-3.6,33.52,33.52,0,0,0-8.09-1q-4.72,0-7.25,2.21a7.25,7.25,0,0,0-2.52,5.74,7.1,7.1,0,0,0,1,3.84A11.07,11.07,0,0,0,151,140.9a99.45,99.45,0,0,0,10.55,5.51q11,5.26,15.09,10.55A20.61,20.61,0,0,1,180.7,169.93Z"/><path class="cls-1" d="M241.28,169.93q0,10.63-7.65,16.76t-21.3,6.12a50.05,50.05,0,0,1-22.24-4.72V172.62a91.19,91.19,0,0,0,13.46,5,39.68,39.68,0,0,0,10.07,1.45c3.65,0,6.45-.69,8.41-2.09a7.16,7.16,0,0,0,2.92-6.23,6.88,6.88,0,0,0-1.29-4.11,14.46,14.46,0,0,0-3.78-3.46,96.94,96.94,0,0,0-10.18-5.32,48.3,48.3,0,0,1-10.8-6.5,24.32,24.32,0,0,1-5.74-7.25,20.61,20.61,0,0,1-2.15-9.67q0-10.43,7.06-16.38t19.52-6a46,46,0,0,1,11.69,1.45,78.75,78.75,0,0,1,11.62,4.08l-5.37,12.94a78.36,78.36,0,0,0-10.39-3.6,33.44,33.44,0,0,0-8.08-1q-4.73,0-7.25,2.21a7.23,7.23,0,0,0-2.53,5.74,7.1,7.1,0,0,0,1,3.84,11.19,11.19,0,0,0,3.25,3.17,101.1,101.1,0,0,0,10.56,5.51q11,5.26,15.09,10.55A20.61,20.61,0,0,1,241.28,169.93Z"/></svg>
