<svg id="Layer_1" data-name="Layer 1" xmlns="http://www.w3.org/2000/svg" width="300" height="300" viewBox="0 0 300 300"><defs><style>.cls-1{fill:#fff;}</style></defs><title>tool-au</title><path class="cls-1" d="M91.65,176.73l-7.2,26H60.75l30.9-101.1h30L153,202.68H128.4l-7.8-26Zm25.65-17.1L111,138.18c-1.8-6-3.6-13.5-5.1-19.5h-.3c-1.5,6-3,13.65-4.65,19.5l-6,21.45Z"/><path class="cls-1" d="M232.65,179.13c0,9.6.3,17.4.6,23.55h-19.8l-1-10.35H212c-2.85,4.5-9.75,12-22.95,12-14.85,0-25.8-9.3-25.8-32v-43h23v39.45c0,10.65,3.45,17.1,11.4,17.1,6.3,0,9.9-4.35,11.4-7.95a12.74,12.74,0,0,0,.75-5V129.33h23Z"/></svg>
